<svg width="179" height="16" viewBox="0 0 179 16" fill="none" xmlns="http://www.w3.org/2000/svg">
<path d="M4.26057 2.184C6.45657 2.184 7.10457 3.318 7.10457 4.956C7.10457 6.72 6.52857 8.286 4.26057 8.286H2.85657V2.202C3.55857 2.184 4.02657 2.184 4.26057 2.184ZM0.0665704 15H3.57657V14.964C2.98257 13.848 2.85657 13.236 2.85657 11.742V8.646H4.42257L7.66257 15H10.8306V14.874C9.89457 14.406 9.51657 14.01 8.74257 12.498L6.60057 8.304C8.40057 7.728 9.21057 6.468 9.21057 4.974C9.21057 3.084 7.91457 1.824 4.65657 1.824H0.0665704V1.86C0.64257 2.976 0.78657 3.588 0.78657 5.082V11.742C0.78657 13.218 0.64257 13.848 0.0665704 14.964V15ZM18.4283 12.606L18.3203 12.534C17.7083 13.308 16.8803 13.74 15.7823 13.74C13.8923 13.74 12.6323 12.534 12.6323 9.996V9.654H18.4103C18.5183 8.07 17.0783 6.144 14.9723 6.144C12.9923 6.144 10.8143 7.962 10.8143 10.86C10.8143 13.362 12.4523 15.27 14.8643 15.27C16.7363 15.27 17.9603 14.082 18.4283 12.606ZM14.9003 6.468C16.0163 6.468 16.5743 7.296 16.5743 9.078V9.276L12.6683 9.366C12.8123 7.728 13.5323 6.468 14.9003 6.468ZM22.47 14.298C21.624 14.298 21.156 13.848 21.156 13.146C21.156 11.958 22.524 11.364 23.946 11.04V13.776C23.64 14.064 23.082 14.298 22.47 14.298ZM25.476 15.216C26.556 15.216 27.096 14.478 27.366 13.902L27.33 13.866C27.006 14.118 26.718 14.208 26.448 14.208C25.926 14.208 25.746 13.866 25.746 13.416V8.286C25.746 7.17 25.206 6.144 23.388 6.144C21.822 6.144 20.544 6.882 19.806 7.926L19.896 8.034C20.67 7.404 21.606 7.224 22.29 7.224C23.568 7.224 23.946 7.836 23.946 8.772V10.734C22.056 11.04 19.464 11.922 19.464 13.74C19.464 14.766 20.328 15.27 21.39 15.27C22.524 15.27 23.424 14.712 23.982 14.082C24.108 14.694 24.576 15.216 25.476 15.216ZM32.1185 14.064C30.4445 14.064 29.6165 12.642 29.6165 10.482C29.6165 8.142 30.6065 6.468 32.1905 6.468C33.0185 6.468 33.9185 6.936 34.2425 8.466V13.092C33.7565 13.668 33.0545 14.064 32.1185 14.064ZM34.3145 13.452V15.216L36.8705 14.64V14.604C36.2585 14.064 36.0425 13.632 36.0425 11.166V0.995999L33.4325 1.95V1.986C33.8645 2.454 34.2425 3.138 34.2425 4.326V6.468C33.7385 6.27 33.1265 6.144 32.4245 6.144C29.3465 6.144 27.7265 8.484 27.7265 11.094C27.7265 13.506 29.0765 15.27 31.1825 15.27C32.6765 15.27 33.7205 14.388 34.2605 13.452H34.3145ZM45.3755 12.606L45.2675 12.534C44.6555 13.308 43.8275 13.74 42.7295 13.74C40.8395 13.74 39.5795 12.534 39.5795 9.996V9.654H45.3575C45.4655 8.07 44.0255 6.144 41.9195 6.144C39.9395 6.144 37.7615 7.962 37.7615 10.86C37.7615 13.362 39.3995 15.27 41.8115 15.27C43.6835 15.27 44.9075 14.082 45.3755 12.606ZM41.8475 6.468C42.9635 6.468 43.5215 7.296 43.5215 9.078V9.276L39.6155 9.366C39.7595 7.728 40.4795 6.468 41.8475 6.468ZM49.3473 15V14.964C48.9873 13.974 48.9513 13.056 48.9513 11.49V8.61C49.3473 8.07 49.8153 7.8 50.1033 7.8C50.4993 7.8 51.3633 8.07 51.7053 8.34H51.7773L51.8133 6.144C50.6433 6.126 49.6713 7.404 48.9513 8.25H48.8793V6.054L46.3413 7.008V7.044C46.7733 7.53 47.1513 8.196 47.1513 9.384V11.508C47.1513 13.092 47.0793 13.974 46.7373 14.964V15H49.3473ZM58.2834 6.504C57.7974 6.324 56.9154 6.144 56.0514 6.144C54.4674 6.144 52.9194 6.756 52.9194 8.592C52.9194 10.392 54.3774 10.986 55.5834 11.508C56.7894 12.03 57.4914 12.462 57.4914 13.398C57.4914 14.136 57.0414 14.946 55.8354 14.946C54.7014 14.946 53.7834 14.208 52.8834 12.462L52.7754 12.498L52.9554 14.802C53.7114 15.072 54.6654 15.27 55.6014 15.27C57.4734 15.27 58.9674 14.46 58.9674 12.678C58.9674 10.95 57.6714 10.284 56.4114 9.744C55.2234 9.24 54.0894 8.844 54.0894 7.8C54.0894 7.062 54.6294 6.468 55.5654 6.468C56.4114 6.468 57.4374 6.936 58.3554 8.502L58.4634 8.466L58.2834 6.504ZM60.5048 5.91C61.4948 5.316 62.7728 4.128 62.7728 2.886C62.7728 2.31 62.4308 1.734 61.9628 1.41L60.5408 2.544V2.58C60.9008 2.976 61.3508 3.588 61.3508 3.966C61.3508 4.578 60.9908 5.262 60.4148 5.802L60.5048 5.91ZM79.6031 10.68L79.4591 10.626C78.1991 13.146 76.8491 14.91 74.2931 14.91C71.1251 14.91 69.7391 12.156 69.7391 8.412C69.7391 4.686 71.0711 1.914 74.4011 1.914C76.4711 1.914 77.6231 2.94 79.3871 5.424L79.5311 5.37L79.1711 2.418C78.2171 2.04 76.5431 1.554 74.6351 1.554C70.4411 1.554 67.4531 4.578 67.4531 8.412C67.4531 12.264 70.1351 15.27 74.2931 15.27C76.7591 15.27 78.9371 14.208 79.2431 13.974L79.6031 10.68ZM83.9222 15V14.964C83.5622 13.974 83.5082 13.056 83.5082 11.508V8.16C84.0482 7.584 84.7322 7.242 85.5062 7.242C86.6942 7.242 87.1622 8.142 87.1622 9.168V11.508C87.1622 13.002 87.0902 13.974 86.7482 14.964V15H89.3582V14.964C88.9982 13.974 88.9622 13.11 88.9622 11.508V8.754C88.9622 7.152 88.0442 6.144 86.4062 6.144C85.1462 6.144 84.2822 6.864 83.5082 7.8V0.995999L80.8982 1.932V1.968C81.3302 2.454 81.7082 3.138 81.7082 4.308V11.508C81.7082 13.092 81.6362 13.974 81.3122 14.964V15H83.9222ZM95.2621 15.27C97.8001 15.27 99.8881 13.146 99.8881 10.716C99.8881 8.304 97.7821 6.144 95.2621 6.144C92.7601 6.144 90.6721 8.304 90.6541 10.716C90.6361 13.146 92.7241 15.27 95.2621 15.27ZM95.2621 14.91C93.4081 14.91 92.6341 12.894 92.6341 10.716C92.6341 8.556 93.4261 6.504 95.2621 6.504C97.0981 6.504 97.9081 8.556 97.9081 10.716C97.9081 12.894 97.1161 14.91 95.2621 14.91ZM103.393 3.156C103.393 2.562 102.907 2.058 102.313 2.058C101.719 2.058 101.233 2.562 101.233 3.156C101.233 3.75 101.719 4.236 102.313 4.236C102.907 4.236 103.393 3.75 103.393 3.156ZM101.089 15H103.699V14.964C103.339 13.974 103.303 13.038 103.303 11.49V6.054L100.693 7.008V7.134C101.125 7.62 101.503 8.304 101.503 9.456V11.508C101.503 13.074 101.341 13.974 101.089 14.964V15ZM112.27 12.912C111.694 13.506 110.74 13.74 109.876 13.74C107.986 13.74 106.744 12.462 106.744 10.104C106.744 7.89 107.734 6.468 109.264 6.468C110.254 6.468 111.496 7.782 111.982 8.646L112.144 8.61L111.91 6.612C111.496 6.414 110.776 6.144 109.534 6.144C107.176 6.144 104.98 8.124 104.98 10.86C104.98 13.524 106.564 15.27 109.012 15.27C110.794 15.27 111.91 14.352 112.378 12.984L112.27 12.912ZM120.874 12.606L120.766 12.534C120.154 13.308 119.326 13.74 118.228 13.74C116.338 13.74 115.078 12.534 115.078 9.996V9.654H120.856C120.964 8.07 119.524 6.144 117.418 6.144C115.438 6.144 113.26 7.962 113.26 10.86C113.26 13.362 114.898 15.27 117.31 15.27C119.182 15.27 120.406 14.082 120.874 12.606ZM117.346 6.468C118.462 6.468 119.02 7.296 119.02 9.078V9.276L115.114 9.366C115.258 7.728 115.978 6.468 117.346 6.468ZM131.198 9.672H127.256L129.236 4.47L131.198 9.672ZM126.77 14.964C126.392 14.37 125.924 13.146 126.734 11.04L127.112 10.032H131.342L132.08 11.976C132.584 13.308 132.584 14.442 132.278 14.964V15H135.86V14.964C135.23 14.316 134.816 13.632 134.222 12.066L130.28 1.68H129.92L126.05 11.868C125.528 13.254 125.204 14.064 124.34 14.964V15H126.77V14.964ZM138.537 15.18H138.825L141.003 9.114L143.091 15.18H143.379L145.719 8.664C146.097 7.62 146.421 7.116 147.033 6.45V6.414H145.161V6.45C145.395 6.846 145.719 7.71 145.269 8.916L144.027 12.318L142.731 8.412C142.407 7.458 142.551 6.792 142.731 6.45V6.414H139.671V6.45C140.085 6.882 140.391 7.332 140.805 8.538L140.841 8.646L139.509 12.318L138.231 8.412C137.943 7.53 138.087 6.792 138.267 6.45V6.414H135.189V6.45C135.603 6.882 135.873 7.368 136.269 8.538L138.537 15.18ZM150.368 14.298C149.522 14.298 149.054 13.848 149.054 13.146C149.054 11.958 150.422 11.364 151.844 11.04V13.776C151.538 14.064 150.98 14.298 150.368 14.298ZM153.374 15.216C154.454 15.216 154.994 14.478 155.264 13.902L155.228 13.866C154.904 14.118 154.616 14.208 154.346 14.208C153.824 14.208 153.644 13.866 153.644 13.416V8.286C153.644 7.17 153.104 6.144 151.286 6.144C149.72 6.144 148.442 6.882 147.704 7.926L147.794 8.034C148.568 7.404 149.504 7.224 150.188 7.224C151.466 7.224 151.844 7.836 151.844 8.772V10.734C149.954 11.04 147.362 11.922 147.362 13.74C147.362 14.766 148.226 15.27 149.288 15.27C150.422 15.27 151.322 14.712 151.88 14.082C152.006 14.694 152.474 15.216 153.374 15.216ZM158.613 15V14.964C158.253 13.974 158.217 13.056 158.217 11.49V8.61C158.613 8.07 159.081 7.8 159.369 7.8C159.765 7.8 160.629 8.07 160.971 8.34H161.043L161.079 6.144C159.909 6.126 158.937 7.404 158.217 8.25H158.145V6.054L155.607 7.008V7.044C156.039 7.53 156.417 8.196 156.417 9.384V11.508C156.417 13.092 156.345 13.974 156.003 14.964V15H158.613ZM166.345 14.064C164.671 14.064 163.843 12.642 163.843 10.482C163.843 8.142 164.833 6.468 166.417 6.468C167.245 6.468 168.145 6.936 168.469 8.466V13.092C167.983 13.668 167.281 14.064 166.345 14.064ZM168.541 13.452V15.216L171.097 14.64V14.604C170.485 14.064 170.269 13.632 170.269 11.166V0.995999L167.659 1.95V1.986C168.091 2.454 168.469 3.138 168.469 4.326V6.468C167.965 6.27 167.353 6.144 166.651 6.144C163.573 6.144 161.953 8.484 161.953 11.094C161.953 13.506 163.303 15.27 165.409 15.27C166.903 15.27 167.947 14.388 168.487 13.452H168.541ZM177.674 6.504C177.188 6.324 176.306 6.144 175.442 6.144C173.858 6.144 172.31 6.756 172.31 8.592C172.31 10.392 173.768 10.986 174.974 11.508C176.18 12.03 176.882 12.462 176.882 13.398C176.882 14.136 176.432 14.946 175.226 14.946C174.092 14.946 173.174 14.208 172.274 12.462L172.166 12.498L172.346 14.802C173.102 15.072 174.056 15.27 174.992 15.27C176.864 15.27 178.358 14.46 178.358 12.678C178.358 10.95 177.062 10.284 175.802 9.744C174.614 9.24 173.48 8.844 173.48 7.8C173.48 7.062 174.02 6.468 174.956 6.468C175.802 6.468 176.828 6.936 177.746 8.502L177.854 8.466L177.674 6.504Z" fill="white"/>
</svg>
